<svg xmlns="http://www.w3.org/2000/svg" viewBox="0 0 240 60" fill="none">
  <!-- Ram Icon -->
  <g transform="translate(4, 4) scale(0.52)">
    <!-- Horns -->
    <path d="M50 15C45 8 35 5 28 8C22 11 18 18 20 26C22 34 28 38 32 36C28 32 26 26 28 20C30 14 36 10 42 12C48 14 52 20 50 28C48 34 42 40 36 42" stroke="#C8960E" stroke-width="5" fill="none" stroke-linecap="round"/>
    <path d="M54 15C59 8 69 5 76 8C82 11 86 18 84 26C82 34 76 38 72 36C76 32 78 26 76 20C74 14 68 10 62 12C56 14 52 20 54 28C56 34 62 40 68 42" stroke="#C8960E" stroke-width="5" fill="none" stroke-linecap="round"/>
    <!-- Horn inner detail -->
    <path d="M30 14C34 11 40 12 43 16" stroke="#DAA520" stroke-width="2.5" fill="none" stroke-linecap="round"/>
    <path d="M74 14C70 11 64 12 61 16" stroke="#DAA520" stroke-width="2.5" fill="none" stroke-linecap="round"/>
    <!-- Head -->
    <ellipse cx="52" cy="38" rx="14" ry="18" fill="#3a3a3a"/>
    <ellipse cx="52" cy="36" rx="12" ry="15" fill="#4a4a4a"/>
    <!-- Face detail -->
    <path d="M46 32L52 28L58 32" stroke="#666" stroke-width="2" fill="none" stroke-linecap="round"/>
    <!-- Eyes -->
    <circle cx="46" cy="34" r="2.5" fill="#1a1a1a"/>
    <circle cx="58" cy="34" r="2.5" fill="#1a1a1a"/>
    <circle cx="46.8" cy="33.5" r="0.8" fill="white"/>
    <circle cx="58.8" cy="33.5" r="0.8" fill="white"/>
    <!-- Nose -->
    <ellipse cx="52" cy="42" rx="4" ry="3" fill="#2a2a2a"/>
    <circle cx="50" cy="42" r="1" fill="#1a1a1a"/>
    <circle cx="54" cy="42" r="1" fill="#1a1a1a"/>
    <!-- Mouth -->
    <path d="M48 46C50 48 54 48 56 46" stroke="#2a2a2a" stroke-width="1.5" fill="none" stroke-linecap="round"/>
    <!-- Ears -->
    <path d="M38 28C34 24 32 28 36 32" fill="#3a3a3a"/>
    <path d="M66 28C70 24 72 28 68 32" fill="#3a3a3a"/>
  </g>
  <!-- Text -->
  <text x="62" y="28" font-family="system-ui, -apple-system, sans-serif" font-weight="800" font-size="22" fill="white" letter-spacing="-0.5">BIGHORN</text>
  <text x="62" y="48" font-family="system-ui, -apple-system, sans-serif" font-weight="800" font-size="22" fill="#C8960E" letter-spacing="-0.5">THREADS</text>
  <text x="62" y="58" font-family="system-ui, -apple-system, sans-serif" font-weight="500" font-size="7" fill="#7a8a9a" letter-spacing="3">A VP PROMOS BRAND</text>
</svg>
